# xmcd CD database file
#
# Track frame offsets:
#	150
#	23318
#	45549
#	71493
#	90517
#	112937
#	135769
#	157028
#	181192
#	206926
#	226977
#	252806
#	274984
#	299948
#
# Disc length: 4416 seconds
#
# Revision: 0
# Processed by: cddbd v1.5.1PL0 Copyright (c) Steve Scherf et al.
# Submitted via: CDex 1.51
#
DISCID=be113e0e
DTITLE=中島みゆき - Sigles 2000
DYEAR=2000
DGENRE=J-Pop
TTITLE0=地上の星
TTITLE1=ヘッドライト・テールライト
TTITLE2=瞬きもせず
TTITLE3=私たちは春の中で
TTITLE4=命の別名
TTITLE5=糸
TTITLE6=愛情物語
TTITLE7=幸せ
TTITLE8=たかが愛
TTITLE9=目を開けて最初に君を見たい
TTITLE10=旅人の歌
TTITLE11=SE・TUA・NA・KU・TE
TTITLE12=空と君のあいだに
TTITLE13=ファイト！
EXTD=YEAR: 2000
EXTT0=
EXTT1=
EXTT2=
EXTT3=
EXTT4=
EXTT5=
EXTT6=
EXTT7=
EXTT8=
EXTT9=
EXTT10=
EXTT11=
EXTT12=
EXTT13=
PLAYORDER=
